<svg width="320" height="150" viewBox="0 0 320 150" fill="none" xmlns="http://www.w3.org/2000/svg">
<path d="M89.4464 19.2133C88.2485 17.3557 86.4987 17.3024 84.5046 17.2416C84.2787 17.2347 84.0497 17.2277 83.8179 17.218C83.6415 17.2097 83.4467 17.2129 83.2431 17.2162C82.4345 17.2294 81.4885 17.2448 81.0119 16.5567C80.4595 15.7589 80.5119 14.2172 80.5551 12.9444C80.5688 12.5423 80.5816 12.1667 80.574 11.8502C80.4964 8.89362 80.3344 5.75296 79.2074 4.70304C78.3575 3.9153 75.815 4.02443 73.4702 4.12508C72.7101 4.15771 71.9708 4.18944 71.3166 4.18944H21.4072C20.4023 4.18944 19.3489 4.10658 18.3139 4.02516C16.2972 3.86652 14.3503 3.71336 12.9677 4.18944C10.9613 4.88374 10.8254 8.53212 10.6975 11.9676L10.6906 12.1525C10.5832 14.9886 9.8891 17.1771 7.58879 16.9566C4.91336 16.7044 2.25115 16.6248 1.04151 19.0769C-0.387112 21.9781 -0.0924748 25.0151 0.435265 30.4547C0.51065 31.2317 0.590791 32.0578 0.671345 32.9395H90.2181C90.2693 32.295 90.3238 31.6589 90.3774 31.033C90.7968 26.139 91.1621 21.8749 89.4464 19.2133Z" fill="white"/>
<path fill-rule="evenodd" clip-rule="evenodd" d="M7.64498 38.3345C9.04352 57.5025 10.4268 76.6925 11.8101 95.8828L11.811 95.8945C12.562 106.314 13.3131 116.734 14.0667 127.15H16.9239C17.1186 128.781 17.3414 130.794 17.5762 132.916C18.053 137.224 18.5798 141.983 19.0226 144.908H19.3386C22.2489 143.83 42.3683 135.121 42.3773 100.449C42.3736 100.351 42.3769 100.252 42.387 100.154H37.4164C37.1758 100.151 36.9425 100.07 36.7526 99.9221C36.5626 99.7742 36.4264 99.5679 36.365 99.335C35.8806 98.1233 35.4901 96.8761 35.1968 95.6044C32.2727 97.2768 29.9505 99.8306 28.5614 102.902C27.2428 99.7564 27.0702 96.2471 28.0738 92.9873C29.0774 89.7274 31.1934 86.9242 34.052 85.0676C34.0888 74.9503 37.8294 65.1976 44.5658 57.6555L44.6709 57.5619C44.8667 57.3905 45.1174 57.2951 45.3774 57.293C45.5277 57.2943 45.6762 57.3268 45.8134 57.3885C45.9522 57.4509 46.0764 57.5419 46.1779 57.6555C52.993 65.2078 56.7138 75.0544 56.5983 85.2313C59.5103 87.0362 61.6693 89.8373 62.6748 93.1149C63.6802 96.3925 63.4637 99.9239 62.0655 103.054C60.6839 99.9777 58.3599 97.4218 55.4301 95.7564C55.2511 96.9889 54.9216 98.1947 54.4488 99.3467C54.2853 99.8378 53.9582 100.154 53.6311 100.154H48.3302C48.3386 100.212 48.3445 100.271 48.3479 100.331L48.3499 100.344V100.373C48.3518 100.424 48.3519 100.475 48.3501 100.526C48.4226 136.193 69.8139 144.289 71.6171 144.908H72.2338C72.3913 142.099 72.9038 138.222 73.4035 134.443C73.7478 131.839 74.0861 129.281 74.2978 127.15H77.188C78.1131 114.03 79.0646 100.946 80.0161 87.8619L80.0166 87.8549L80.0169 87.851C81.234 71.1151 82.4511 54.3786 83.613 37.5641H7.83006C7.61193 37.6073 7.6268 37.9686 7.64498 38.3345ZM45.3774 57.293L45.3719 57.293H45.3835L45.3774 57.293Z" fill="white"/>
<path d="M121.872 21.0261C121.872 16.2945 123.481 12.6275 126.701 10.0251C129.979 7.36359 134.896 6.03282 141.451 6.03282C145.783 6.03282 149.47 6.44684 152.514 7.27487V19.5179C149.236 18.5125 145.988 18.0097 142.768 18.0097C139.608 18.0097 137.559 18.3942 136.622 19.1631C135.686 19.8728 135.218 20.9374 135.218 22.3569V52.1662C135.218 55.0051 137.413 56.4246 141.803 56.4246C146.251 56.4246 149.909 55.981 152.778 55.0938V67.0708C149.617 67.9579 145.783 68.4015 141.276 68.4015C134.72 68.4015 129.832 67.1003 126.613 64.4979C123.452 61.8955 121.872 58.2285 121.872 53.4969V21.0261Z" fill="white"/>
<path d="M178.425 29.4544C178.425 27.2068 177.196 26.0831 174.737 26.0831C172.279 26.0831 171.05 27.2068 171.05 29.4544V54.1179C171.05 56.3655 172.279 57.4892 174.737 57.4892C177.196 57.4892 178.425 56.3655 178.425 54.1179V29.4544ZM158.055 29.0108C158.055 24.5157 159.431 21.0261 162.182 18.542C164.991 15.9988 169.177 14.7272 174.737 14.7272C180.298 14.7272 184.454 15.9988 187.205 18.542C190.015 21.0261 191.419 24.5157 191.419 29.0108V54.5615C191.419 59.0566 190.015 62.5757 187.205 65.119C184.454 67.6031 180.298 68.8451 174.737 68.8451C169.177 68.8451 164.991 67.6031 162.182 65.119C159.431 62.5757 158.055 59.0566 158.055 54.5615V29.0108Z" fill="white"/>
<path d="M199.953 14.9933C199.953 4.99778 205.163 0 215.582 0C216.928 0 218.538 0.147863 220.411 0.443589V10.7349C219.474 10.6166 218.596 10.5574 217.777 10.5574C214.792 10.5574 213.299 11.9769 213.299 14.8159V15.6144H220.411V26.0831H213.299V67.9579H199.953V26.0831H194.949V15.6144H199.953V14.9933Z" fill="white"/>
<path d="M225.848 14.9933C225.848 4.99778 231.057 0 241.476 0C242.822 0 244.432 0.147863 246.305 0.443589V10.7349C245.369 10.6166 244.491 10.5574 243.671 10.5574C240.686 10.5574 239.193 11.9769 239.193 14.8159V15.6144H246.305V26.0831H239.193V67.9579H225.848V26.0831H220.843V15.6144H225.848V14.9933Z" fill="white"/>
<path d="M249.371 53.0533V29.0108C249.371 24.5157 250.747 21.0261 253.498 18.542C256.249 15.9988 260.405 14.7272 265.966 14.7272C276.677 14.7272 282.033 19.4884 282.033 29.0108V47.0205H262.102V51.9887C262.102 53.7631 262.571 55.0347 263.507 55.8036C264.502 56.5133 266.639 56.8682 269.917 56.8682C273.253 56.8682 276.882 56.2767 280.804 55.0938V66.8046C276.707 67.9284 272.316 68.4902 267.634 68.4902C255.459 68.4902 249.371 63.3446 249.371 53.0533ZM262.102 36.8179H269.829V29.1882C269.829 26.9407 268.541 25.8169 265.966 25.8169C263.39 25.8169 262.102 26.9407 262.102 29.1882V36.8179Z" fill="white"/>
<path d="M287.27 53.0533V29.0108C287.27 24.5157 288.645 21.0261 291.396 18.542C294.147 15.9988 298.303 14.7272 303.864 14.7272C314.576 14.7272 319.931 19.4884 319.931 29.0108V47.0205H300.001V51.9887C300.001 53.7631 300.469 55.0347 301.405 55.8036C302.401 56.5133 304.537 56.8682 307.815 56.8682C311.151 56.8682 314.78 56.2767 318.702 55.0938V66.8046C314.605 67.9284 310.215 68.4902 305.532 68.4902C293.357 68.4902 287.27 63.3446 287.27 53.0533ZM300.001 36.8179H307.727V29.1882C307.727 26.9407 306.439 25.8169 303.864 25.8169C301.288 25.8169 300.001 26.9407 300.001 29.1882V36.8179Z" fill="white"/>
<path d="M143.005 100.624C143.005 96.2567 140.723 94.0729 136.161 94.0729H128.885V133.891H136.161C140.723 133.891 143.005 131.659 143.005 127.194V100.624ZM123.77 89.5596H136.449C140.291 89.5596 143.197 90.5545 145.166 92.5442C147.135 94.5339 148.12 97.203 148.12 100.552V127.34C148.12 130.785 147.159 133.503 145.238 135.493C143.317 137.482 140.435 138.477 136.593 138.477H123.77V89.5596Z" fill="white"/>
<path d="M156.537 127.922V107.685C156.537 104.24 157.498 101.498 159.419 99.4596C161.388 97.3728 164.342 96.3295 168.28 96.3295C172.218 96.3295 175.124 97.3728 176.997 99.4596C178.918 101.498 179.879 104.24 179.879 107.685V120.352H161.58V127.704C161.58 129.888 162.253 131.513 163.597 132.581C164.942 133.649 167.031 134.182 169.865 134.182C172.699 134.182 175.628 133.746 178.654 132.872V137.677C176.253 138.453 173.395 138.841 170.081 138.841C161.052 138.841 156.537 135.202 156.537 127.922ZM161.58 116.057H174.98V107.685C174.98 103.124 172.747 100.843 168.28 100.843C163.813 100.843 161.58 103.124 161.58 107.685V116.057Z" fill="white"/>
<path d="M188.635 86.0655H193.75V138.477H188.635V86.0655Z" fill="white"/>
<path d="M206.212 92.3986C204.147 92.3986 203.114 91.2824 203.114 89.0501C203.114 86.8177 204.147 85.7015 206.212 85.7015C208.325 85.7015 209.382 86.8177 209.382 89.0501C209.382 91.2824 208.325 92.3986 206.212 92.3986ZM203.691 97.3486H208.806V138.477H203.691V97.3486Z" fill="white"/>
<path d="M235.172 97.0574H240.359L231.281 138.477H224.077L215 97.0574H220.259L224.221 116.057L227.751 134.838C229.192 126.782 231.666 114.188 235.172 97.0574Z" fill="white"/>
<path d="M245.815 127.922V107.685C245.815 104.24 246.776 101.498 248.697 99.4596C250.666 97.3728 253.62 96.3295 257.558 96.3295C261.496 96.3295 264.402 97.3728 266.275 99.4596C268.196 101.498 269.157 104.24 269.157 107.685V120.352H250.858V127.704C250.858 129.888 251.531 131.513 252.875 132.581C254.22 133.649 256.309 134.182 259.143 134.182C261.977 134.182 264.906 133.746 267.932 132.872V137.677C265.531 138.453 262.673 138.841 259.359 138.841C250.33 138.841 245.815 135.202 245.815 127.922ZM250.858 116.057H264.258V107.685C264.258 103.124 262.025 100.843 257.558 100.843C253.091 100.843 250.858 103.124 250.858 107.685V116.057Z" fill="white"/>
<path d="M291.169 96.839H292.97V101.789H290.52C288.791 101.789 287.23 102.25 285.838 103.172C285.405 103.463 284.469 104.118 283.028 105.138V138.477H277.913V97.0574H282.812V100.188C282.956 100.091 283.316 99.8236 283.893 99.3868C284.517 98.9501 284.877 98.7074 284.973 98.6589C285.117 98.5618 285.429 98.3677 285.91 98.0765C286.438 97.7854 286.822 97.6155 287.062 97.567C287.351 97.4699 287.735 97.3486 288.215 97.203C288.935 96.9604 289.92 96.839 291.169 96.839Z" fill="white"/>
<path d="M314.885 97.0574H320L308.762 149.324H303.863L306.096 138.477H303.575L294.641 97.0574H299.828L304.151 117.658L307.321 134.838C308.281 129.111 309.338 123.385 310.491 117.658L314.885 97.0574Z" fill="white"/>
</svg>
